<svg width="20" height="25" viewBox="0 0 20 25" fill="none" xmlns="http://www.w3.org/2000/svg">
<g id="svelte.svg" clip-path="url(#clip0_390_730)">
<g id="Group">
<path id="Vector" d="M18.7024 3.65206C16.4763 0.465929 12.0797 -0.478451 8.9008 1.54694L3.31785 5.10521C1.79284 6.06462 0.742436 7.62196 0.424214 9.39533C0.157895 10.8727 0.391974 12.3966 1.08939 13.7259C0.611502 14.4508 0.285562 15.2651 0.131268 16.1196C-0.190031 17.927 0.230258 19.7877 1.29725 21.2815C3.52382 24.4679 7.92039 25.4119 11.0988 23.3866L16.6818 19.8284C18.2069 18.8691 19.2573 17.3117 19.5754 15.5382C19.8417 14.0609 19.6078 12.537 18.9107 11.2076C19.3885 10.4826 19.7143 9.66838 19.8684 8.81398C20.1899 7.00655 19.7696 5.14581 18.7024 3.65206" fill="#FF3E00"/>
<path id="Vector_2" d="M8.35479 21.5846C6.55467 22.0527 4.65371 21.3481 3.59357 19.8198C2.9516 18.9212 2.69871 17.8019 2.89202 16.7147C2.92442 16.5379 2.96901 16.3637 3.02547 16.1931L3.13064 15.8724L3.41676 16.0826C4.07752 16.5681 4.81633 16.9372 5.60134 17.1741L5.8089 17.2371L5.78978 17.4442C5.76441 17.7389 5.84421 18.0331 6.01502 18.2746C6.33406 18.7349 6.90641 18.9473 7.44854 18.8066C7.56991 18.7742 7.68559 18.7233 7.79157 18.6559L13.3763 15.097C13.6526 14.923 13.843 14.6408 13.901 14.3195C13.9589 13.9918 13.8827 13.6546 13.6896 13.3836C13.3704 12.9232 12.7979 12.7106 12.2555 12.8512C12.1343 12.8837 12.0188 12.9345 11.9129 13.0019L9.78184 14.3604C9.43141 14.5832 9.04898 14.7511 8.6478 14.8584C6.8477 15.3264 4.94677 14.6218 3.88665 13.0935C3.24465 12.195 2.99176 11.0757 3.18509 9.98841C3.37647 8.92171 4.00839 7.985 4.92582 7.40809L10.5101 3.84888C10.8607 3.6257 11.2434 3.45755 11.6449 3.35028C13.445 2.88225 15.3459 3.58688 16.406 5.11511C17.048 6.01367 17.3009 7.13298 17.1075 8.22026C17.075 8.39694 17.0304 8.57118 16.9741 8.74177L16.8689 9.06247L16.583 8.85264C15.9222 8.36685 15.1834 7.99754 14.3982 7.76067L14.1907 7.69768L14.2098 7.49053C14.2349 7.19585 14.1552 6.90177 13.9845 6.6602C13.6655 6.19986 13.0932 5.98742 12.551 6.12814C12.4297 6.16058 12.314 6.21142 12.208 6.27889L6.62325 9.83796C6.34699 10.0118 6.15668 10.2939 6.09895 10.6152C6.04071 10.9429 6.11676 11.2802 6.30998 11.5512C6.62922 12.0116 7.2017 12.2242 7.74406 12.0836C7.8654 12.0511 7.98106 12.0002 8.08706 11.9328L10.2179 10.5748C10.5682 10.3517 10.9506 10.1836 11.3518 10.0764C13.1519 9.60838 15.0528 10.313 16.1129 11.8413C16.7549 12.7398 17.0078 13.8591 16.8145 14.9464C16.623 16.0132 15.9911 16.9499 15.0738 17.5271L9.48949 21.086C9.13891 21.3092 8.75621 21.4774 8.3547 21.5846" fill="white"/>
</g>
</g>
<defs>
<clipPath id="clip0_390_730">
<rect width="19.9481" height="24" fill="white" transform="translate(0.0258789 0.480103)"/>
</clipPath>
</defs>
</svg>
